<?xml version="1.0" encoding="UTF-8" standalone="no"?>
<svg
   width="16"
   height="30"
   viewBox="0 0 16 30"
   version="1.1"
   id="svg1"
   sodipodi:docname="battery_60.svg"
   inkscape:version="1.3.2 (091e20e, 2023-11-25, custom)"
   xmlns:inkscape="http://www.inkscape.org/namespaces/inkscape"
   xmlns:sodipodi="http://sodipodi.sourceforge.net/DTD/sodipodi-0.dtd"
   xmlns="http://www.w3.org/2000/svg"
   xmlns:svg="http://www.w3.org/2000/svg">
  <defs
     id="defs1" />
  <sodipodi:namedview
     id="namedview1"
     pagecolor="#ffffff"
     bordercolor="#000000"
     borderopacity="0.25"
     inkscape:showpageshadow="2"
     inkscape:pageopacity="0.0"
     inkscape:pagecheckerboard="0"
     inkscape:deskcolor="#d1d1d1"
     inkscape:zoom="39.366667"
     inkscape:cx="7.9889924"
     inkscape:cy="15"
     inkscape:window-width="3440"
     inkscape:window-height="1377"
     inkscape:window-x="-8"
     inkscape:window-y="-8"
     inkscape:window-maximized="1"
     inkscape:current-layer="svg1" />
  <g
     id="Batery"
     transform="translate(-7 0.394)">
    <rect
       id="Rectangle_5236"
       data-name="Rectangle 5236"
       width="16"
       height="16"
       transform="translate(7 6.606)"
       fill="#f37320"
       opacity="0" />
    <g
       fill="#7acf38"
       id="Group_17320"
       data-name="Group 17320"
       transform="translate(7.017 -0.394)">
      <path
         id="Rectangle_6874"
         data-name="Rectangle 6874"
         d="M.5-.75H13.967A1.255,1.255,0,0,1,15.217.507v24.9a1.255,1.255,0,0,1-1.25,1.257H.5A1.255,1.255,0,0,1-.75,25.407V.507A1.255,1.255,0,0,1,.5-.75ZM13.717.758H.75v24.4H13.717Z"
         transform="translate(0.75 3.336)" />
      <path
         id="Path_20140"
         data-name="Path 20140"
         d="M21.023,1.753H13.5V.546c0-.3.357-.546.8-.546h5.929c.44,0,.8.244.8.546Z"
         transform="translate(-9.278)" />
      <g
         id="Group_17329"
         data-name="Group 17329"
         transform="translate(0.001 -0.225)">
        <path
           id="Path_20145"
           data-name="Path 20145"
           d="M944.949,22549.719h-8.231v-2h8.231Z"
           transform="translate(-932.851 -22532.273)" />
        <path
           id="Path_20146"
           data-name="Path 20146"
           d="M944.949,22549.719h-8.231v-2h8.231Z"
           transform="translate(-932.851 -22527.695)" />
        <path
           id="Path_20147"
           data-name="Path 20147"
           d="M944.949,22549.719h-8.231v-2h8.231Z"
           transform="translate(-932.851 -22523.078)" />
      </g>
    </g>
  </g>
</svg>
